<?xml version="1.0" standalone="no"?>
<!DOCTYPE svg PUBLIC "-//W3C//DTD SVG 20010904//EN"
 "http://www.w3.org/TR/2001/REC-SVG-20010904/DTD/svg10.dtd">
<svg version="1.0" xmlns="http://www.w3.org/2000/svg"
 width="750.000000pt" height="750.000000pt" viewBox="0 0 750.000000 750.000000"
 preserveAspectRatio="xMidYMid meet">
<metadata>
Created by potrace 1.14, written by Peter Selinger 2001-2017
</metadata>
<g transform="translate(0.000000,750.000000) scale(0.100000,-0.100000)"
fill="#000000" stroke="none">
<path d="M0 7489 c0 -5 5 -7 10 -4 5 3 10 8 10 11 0 2 -4 4 -10 4 -5 0 -10 -5
-10 -11z"/>
<path d="M41 7453 l-41 -46 2 -2026 3 -2026 61 -180 c34 -99 80 -222 103 -274
23 -52 41 -103 41 -113 0 -25 -19 -23 -29 5 -5 12 -22 51 -39 87 -24 54 -78
199 -130 355 -8 22 -11 -61 -11 -293 l-1 -324 60 -116 c32 -64 76 -144 96
-177 20 -33 51 -86 68 -117 17 -31 66 -105 108 -163 43 -58 82 -115 88 -125
17 -32 -5 -31 -37 3 -42 46 -143 184 -143 196 0 6 -11 13 -25 17 -20 5 -85 81
-85 99 0 3 -15 28 -33 57 -18 29 -46 79 -63 110 l-29 58 -3 -502 c-2 -463 -1
-503 15 -528 21 -33 108 -132 216 -248 77 -82 93 -117 60 -129 -12 -5 -40 18
-105 88 -49 52 -110 120 -136 151 l-47 58 -3 -66 c-4 -79 -5 -75 121 -211 105
-112 121 -135 112 -162 -14 -44 -37 -33 -136 68 l-99 100 0 -254 c0 -162 4
-256 10 -256 6 -1 16 -2 23 -3 6 -1 14 -10 17 -21 4 -12 16 -21 30 -23 14 -2
30 -8 35 -13 7 -7 3 -8 -10 -4 -11 4 5 -16 35 -44 30 -29 65 -54 77 -57 12 -3
26 -18 32 -35 7 -19 21 -33 41 -40 16 -6 30 -15 30 -20 0 -6 8 -9 18 -7 9 2
16 -3 14 -9 -1 -7 5 -13 13 -13 9 0 18 -7 21 -15 4 -8 9 -13 13 -10 4 2 14 -5
22 -17 20 -29 52 -59 57 -53 3 2 -1 12 -9 21 -13 16 -12 16 8 5 13 -6 23 -18
23 -26 0 -8 7 -15 16 -15 8 0 12 -5 8 -11 -4 -7 0 -9 13 -5 14 5 23 0 33 -18
7 -15 23 -26 39 -28 14 -2 26 -9 26 -17 0 -7 15 -22 33 -31 19 -10 43 -27 54
-37 18 -16 43 -18 272 -20 138 -1 243 1 233 4 -10 2 -45 20 -78 39 -34 19 -63
34 -65 34 -2 0 -49 27 -104 60 -55 33 -102 60 -104 60 -19 0 -409 281 -492
355 -6 6 -38 33 -70 60 -198 170 -266 241 -262 274 4 37 34 29 83 -23 22 -23
80 -77 130 -121 50 -44 104 -92 120 -108 101 -95 420 -318 647 -452 9 -5 93
-49 187 -98 l169 -87 1556 0 1555 0 78 29 c76 28 173 71 301 133 63 31 63 31
57 67 -4 23 -1 42 7 53 7 9 78 54 158 99 139 79 180 105 343 221 191 135 379
300 580 508 117 121 150 151 169 148 29 -4 50 -46 40 -80 -10 -37 -213 -250
-367 -386 -329 -290 -663 -516 -933 -633 -28 -12 -52 -26 -52 -31 0 -4 -6 -8
-14 -8 -8 0 -27 -7 -43 -15 -15 -9 -40 -20 -55 -25 -19 -6 -26 -14 -22 -25 3
-8 9 -15 14 -15 15 0 360 180 436 228 44 27 84 51 89 53 13 5 256 169 272 183
46 41 163 126 173 126 4 0 10 -9 13 -20 5 -19 7 -19 34 7 16 16 48 44 73 63
24 19 76 67 116 105 39 39 91 88 115 110 24 22 78 78 119 125 41 46 110 120
153 164 42 44 77 82 77 86 0 3 14 20 30 38 29 31 50 41 50 23 0 -8 -104 -147
-120 -161 -3 -3 -35 -39 -70 -80 -73 -87 -333 -346 -375 -374 -18 -12 -24 -21
-16 -24 7 -2 25 8 41 23 31 30 64 30 68 0 3 -25 -69 -93 -278 -261 -103 -82
-421 -304 -436 -304 -3 0 -50 -27 -105 -60 -54 -34 -112 -66 -127 -73 -22 -10
72 -13 482 -15 280 -1 512 1 515 6 8 10 58 42 67 42 4 0 -3 -11 -16 -25 l-23
-25 184 0 185 0 179 177 c155 152 240 244 349 378 14 17 56 68 95 114 39 46
114 147 168 225 54 78 108 155 120 171 13 17 28 41 35 55 7 14 24 40 38 59
l25 34 1 831 c1 457 0 822 -3 811 -7 -32 -34 -118 -43 -140 -5 -11 -11 -31
-13 -45 -3 -14 -15 -50 -27 -80 -12 -30 -24 -64 -27 -75 -3 -11 -11 -33 -19
-50 -7 -16 -29 -70 -48 -120 -63 -162 -102 -249 -119 -259 -22 -14 -34 1 -19
22 7 9 15 24 18 32 10 23 44 101 64 145 10 22 30 72 44 110 15 39 35 90 46
115 16 38 85 252 136 424 12 41 14 312 13 1880 0 1324 -3 1825 -11 1809 -6
-13 -19 -23 -29 -23 -10 0 -21 10 -24 23 -9 28 -106 230 -114 237 -4 3 -21 32
-38 65 -30 57 -40 76 -115 209 -48 86 -51 91 -71 110 -9 10 -17 26 -17 36 0
10 -6 20 -12 23 -7 2 -31 31 -53 63 -21 33 -52 76 -68 97 l-29 37 -1301 -1
c-716 -1 -1294 -3 -1284 -6 19 -5 245 -120 296 -150 2 -2 2 -5 -1 -8 -7 -7
-78 23 -78 33 0 4 -21 16 -48 26 -26 11 -64 30 -84 43 -21 13 -44 23 -52 23
-9 0 -31 9 -51 20 -25 14 -53 20 -93 19 -49 0 -53 -2 -30 -10 31 -12 38 -26
27 -56 -10 -27 -41 -30 -84 -7 -16 8 -74 28 -129 45 l-99 29 -700 0 c-462 0
-721 -4 -761 -11 -61 -11 -373 -108 -431 -134 -16 -7 -50 -21 -75 -31 -25 -10
-51 -24 -58 -31 -10 -10 -17 -10 -32 -1 -16 11 -31 7 -87 -21 -38 -18 -99 -52
-138 -76 -91 -56 -111 -62 -136 -39 -14 13 -24 15 -33 9 -7 -6 -40 -28 -72
-49 -32 -21 -63 -44 -69 -51 -5 -7 -47 -40 -91 -73 -45 -34 -88 -68 -95 -76
-8 -8 -80 -81 -160 -163 -204 -208 -406 -469 -514 -668 -81 -150 -107 -172
-141 -120 -22 34 -11 74 50 175 54 90 126 202 150 235 56 76 143 193 156 208
72 89 234 257 336 351 47 43 54 46 77 35 23 -10 29 -8 64 25 21 20 41 36 45
36 4 0 13 6 20 13 29 27 175 133 202 147 29 15 40 33 51 83 3 15 13 31 23 34
9 4 35 19 57 34 22 15 65 40 95 55 30 16 57 32 60 35 3 3 14 9 24 12 10 4 17
10 14 13 -6 5 -60 -14 -68 -24 -3 -4 -34 -23 -70 -41 -36 -19 -67 -37 -70 -41
-3 -4 -12 -9 -21 -12 -18 -7 -204 -132 -224 -151 -7 -6 -23 -19 -35 -27 -76
-51 -252 -199 -355 -300 -124 -122 -165 -166 -259 -285 -30 -38 -61 -77 -68
-85 -7 -8 -30 -41 -51 -72 -20 -31 -43 -63 -50 -70 -16 -18 -35 -48 -46 -74
-5 -11 -23 -41 -40 -66 -17 -25 -31 -51 -31 -57 0 -6 -3 -11 -8 -11 -4 0 -16
-16 -26 -35 -23 -41 -33 -44 -47 -11 -10 21 -5 35 31 102 38 68 204 321 219
334 3 3 25 30 48 62 23 31 53 68 65 81 13 14 41 47 63 74 41 50 216 225 326
327 55 52 285 227 344 263 11 7 76 46 144 88 l124 75 -776 0 -775 0 -41 -47z
m3484 -134 c101 -18 209 -40 235 -49 14 -4 59 -18 100 -30 110 -32 179 -56
235 -80 107 -46 122 -53 192 -88 58 -30 73 -42 73 -59 0 -13 -2 -23 -5 -23 -3
0 -34 15 -68 34 -34 19 -87 44 -117 56 -30 11 -73 29 -95 39 -22 10 -62 26
-90 36 -27 9 -57 19 -65 23 -8 3 -22 6 -30 7 -8 1 -51 14 -95 28 -44 14 -98
28 -120 32 -101 18 -278 55 -282 59 -3 3 -3 12 0 20 7 16 7 16 132 -5z m-1017
-474 c1 -11 -1 -24 -5 -30 -5 -5 -60 -27 -123 -49 -159 -53 -298 -116 -435
-198 -90 -53 -105 -63 -192 -127 -44 -33 -47 -33 -59 -16 -19 25 -18 30 9 58
40 43 344 227 374 227 7 0 13 4 13 9 0 5 11 12 25 15 14 4 56 20 93 37 37 17
103 42 147 56 44 13 89 28 100 33 30 13 50 7 53 -15z m1682 -18 c152 -78 357
-206 431 -269 15 -13 51 -43 79 -68 29 -25 66 -56 83 -70 55 -47 64 -55 82
-83 17 -26 17 -29 2 -44 -15 -15 -21 -12 -79 43 -35 33 -83 76 -107 96 -27 23
-40 41 -35 49 4 8 3 10 -4 5 -6 -4 -36 13 -66 36 -30 24 -75 57 -101 73 -143
91 -209 130 -296 175 -91 47 -117 69 -103 91 9 16 27 10 114 -34z m-765 -82
c112 -20 213 -44 244 -56 19 -8 22 -14 16 -37 -10 -43 -19 -46 -82 -29 -133
38 -373 67 -550 67 -77 0 -94 -3 -102 -17 -7 -12 -10 -13 -11 -4 0 9 -8 11
-24 7 -14 -3 -36 -2 -50 4 -35 13 -38 67 -3 75 84 18 442 13 562 -10z m-257
-94 c29 -1 45 -6 49 -16 3 -9 3 -18 1 -20 -3 -3 -81 -7 -174 -9 -200 -5 -345
-28 -540 -87 -41 -12 -72 -11 -76 2 -3 10 -121 -31 -181 -62 -17 -10 -37 -5
-37 9 0 14 192 92 238 97 32 4 109 23 137 35 48 20 94 31 145 37 30 2 58 8 62
11 6 6 161 7 376 3z m1632 -67 c130 -113 370 -367 370 -393 0 -6 4 -11 8 -11
7 0 59 -65 100 -126 110 -166 115 -175 106 -202 -19 -55 -44 -39 -119 75 -38
60 -80 119 -92 133 -13 14 -23 30 -23 37 0 6 -3 13 -7 15 -18 8 -92 106 -85
113 4 5 2 5 -4 2 -7 -4 -20 5 -29 20 -10 14 -43 52 -74 82 -31 31 -72 74 -91
96 -20 22 -39 41 -44 42 -4 0 -37 26 -72 58 -43 38 -64 64 -64 79 0 55 41 48
120 -20z m-1236 5 c108 -25 179 -48 300 -96 106 -42 299 -140 326 -165 21 -20
27 -63 10 -73 -8 -5 -64 22 -185 90 -22 12 -74 37 -115 54 -41 18 -84 36 -95
41 -42 19 -203 68 -260 80 -33 7 -68 16 -77 21 -24 13 -23 69 0 69 2 0 46 -9
96 -21z m-208 -99 c139 -22 164 -32 164 -60 0 -15 -24 -50 -34 -50 -2 0 -47 7
-102 16 -170 26 -404 26 -573 -2 -48 -8 -61 2 -61 47 0 34 17 49 60 50 19 1
46 5 60 9 53 17 355 11 486 -10z m-686 -19 c0 -27 -16 -36 -92 -55 -62 -15
-127 -38 -205 -72 -17 -8 -34 -14 -38 -14 -11 0 -120 -55 -123 -62 -2 -5 -8
-8 -14 -8 -12 0 -177 -98 -196 -117 -8 -7 -18 -11 -23 -8 -15 10 -10 51 9 67
44 38 295 174 335 182 7 2 38 15 71 29 32 15 63 27 69 27 11 0 67 17 102 31
37 14 50 17 78 18 20 1 27 -4 27 -18z m1680 -30 c0 -5 8 -12 18 -15 10 -4 35
-21 55 -40 20 -19 37 -32 37 -29 0 3 24 -15 53 -39 147 -121 243 -218 357
-358 25 -30 47 -57 50 -60 19 -18 41 -65 38 -83 -4 -32 -43 -35 -59 -5 -22 43
-138 185 -214 262 -63 64 -184 176 -191 176 -4 0 -21 12 -38 28 -17 15 -49 41
-71 57 -21 17 -47 38 -57 48 -18 17 -24 48 -11 60 10 10 33 8 33 -2z m1274
-107 c3 -8 2 -12 -4 -9 -6 3 -10 10 -10 16 0 14 7 11 14 -7z m-4806 -27 c3
-21 -9 -43 -46 -90 -26 -34 -59 -80 -72 -102 -13 -22 -38 -62 -55 -90 -92
-142 -224 -428 -321 -699 -10 -28 -25 -51 -36 -53 -22 -6 -49 -101 -111 -393
-9 -46 -18 -66 -30 -68 -64 -13 58 491 202 832 44 105 135 284 156 306 13 14
49 68 80 120 32 52 87 135 123 183 50 68 69 87 86 85 15 -2 22 -11 24 -31z
m5785 -22 c34 -34 152 -308 141 -327 -4 -6 -3 -8 4 -5 6 4 17 -16 28 -50 9
-32 20 -62 24 -68 12 -17 107 -325 125 -405 9 -41 21 -86 25 -100 7 -21 15
-59 26 -120 4 -19 42 -243 49 -290 3 -19 8 -41 11 -48 2 -8 -3 -29 -12 -49
-15 -31 -16 -49 -5 -177 21 -258 12 -600 -25 -928 -8 -70 -34 -104 -66 -87
-19 10 -20 16 -13 98 3 47 8 97 10 111 24 173 34 558 20 720 -21 244 -38 394
-50 459 -19 95 -19 122 -1 156 9 18 11 36 6 54 -4 14 -15 62 -24 106 -24 115
-105 399 -125 435 -5 9 -12 30 -15 47 -7 32 -69 179 -80 190 -3 4 -6 12 -6 19
0 12 -59 148 -80 186 -6 10 -10 31 -10 46 0 43 17 54 43 27z m-3068 -15 c8
-13 -25 -13 -45 0 -12 8 -9 10 12 10 15 0 30 -4 33 -10z m2803 -80 c51 -88 58
-110 41 -122 -11 -7 -10 -8 4 -6 14 2 27 -18 59 -92 22 -52 47 -109 54 -126
13 -30 72 -196 101 -284 45 -140 111 -420 133 -563 10 -67 9 -79 -4 -93 -19
-18 -19 -21 -5 -120 7 -50 7 -80 1 -86 -17 -17 -29 21 -36 107 -10 124 -24
219 -53 350 -2 11 -8 47 -14 79 -5 33 -13 64 -16 69 -3 5 -9 23 -13 41 -5 17
-18 65 -30 106 -12 41 -23 80 -24 85 -1 6 -4 15 -8 20 -3 6 -9 27 -13 48 -4
20 -11 40 -16 43 -5 3 -9 15 -9 28 0 12 -4 26 -8 32 -5 5 -15 29 -22 54 -8 25
-22 60 -32 78 -10 18 -16 37 -13 43 4 5 1 9 -4 9 -6 0 -11 7 -11 15 0 13 -20
65 -41 107 -5 10 -9 24 -9 31 0 8 -18 53 -41 101 -37 80 -44 116 -21 116 5 0
28 -32 50 -70z m-2648 34 l35 -13 -30 0 c-16 -1 -43 8 -60 20 -28 19 -28 20
-5 13 14 -4 41 -13 60 -20z m2247 -36 c90 -143 262 -528 315 -708 49 -164 62
-213 87 -321 15 -64 24 -125 21 -135 -4 -10 -18 -21 -31 -24 -26 -7 -25 -5 -8
-95 5 -27 14 -90 20 -140 5 -49 12 -106 15 -125 10 -77 13 -461 4 -550 -5 -52
-12 -124 -15 -160 -8 -95 -13 -110 -34 -110 -28 0 -31 20 -18 122 6 51 11 217
11 368 0 317 -12 460 -61 699 l-15 75 23 19 c13 11 22 25 20 31 -2 6 -13 54
-26 106 -62 262 -200 614 -335 851 -56 99 -62 139 -20 139 12 0 30 -17 47 -42z
m-2163 7 c11 -8 15 -15 10 -15 -6 0 -19 7 -30 15 -10 8 -14 14 -9 14 6 0 19
-6 29 -14z m-529 -30 c0 -19 -7 -20 -143 -22 -146 -2 -280 -19 -410 -52 -40
-10 -75 -15 -77 -10 -9 14 6 37 28 42 12 3 65 15 117 27 125 28 219 38 365 36
113 -1 120 -2 120 -21z m609 -6 c16 -15 0 -20 -28 -10 -32 13 -36 35 -3 26 12
-4 26 -11 31 -16z m-2076 -73 c2 -9 -11 -28 -30 -44 -61 -50 -178 -176 -259
-279 -78 -98 -111 -147 -179 -260 -36 -59 -60 -69 -60 -24 0 19 26 67 80 147
118 176 147 212 312 387 46 49 110 97 123 93 6 -1 11 -10 13 -20z m2200 8 c33
-23 27 -37 -8 -19 -16 9 -30 20 -30 25 0 14 12 12 38 -6z m-2434 -70 c13 -34
4 -55 -45 -111 -132 -150 -236 -307 -336 -511 -42 -85 -82 -156 -90 -159 -25
-10 -55 28 -50 63 9 52 124 272 213 406 174 262 284 374 308 312z m1486 -78
c0 -17 -22 -26 -60 -26 -16 0 -41 -6 -57 -14 -15 -8 -55 -19 -88 -24 -91 -16
-157 -31 -169 -40 -6 -5 -31 -14 -56 -21 -25 -7 -80 -31 -122 -52 -89 -45
-101 -47 -96 -17 9 61 364 187 568 201 25 2 53 4 63 5 9 1 17 -4 17 -12z
m-1980 -106 c0 -5 -15 -34 -34 -63 -31 -48 -57 -94 -119 -212 -12 -22 -26 -47
-32 -55 -6 -8 -17 -33 -24 -55 -7 -22 -16 -49 -21 -60 -42 -96 -50 -116 -50
-127 0 -8 -4 -18 -9 -24 -4 -5 -14 -31 -21 -59 -16 -61 -40 -119 -45 -113 -10
10 75 263 125 374 56 123 113 240 125 254 7 8 27 42 45 75 17 33 34 63 37 68
6 10 23 9 23 -3z m4870 -10 c0 -5 -2 -10 -4 -10 -3 0 -8 5 -11 10 -3 6 -1 10
4 10 6 0 11 -4 11 -10z m-3550 -30 c0 -14 -18 -32 -54 -55 -132 -84 -376 -303
-376 -336 0 -5 -9 -9 -20 -9 -89 0 118 224 347 374 75 50 103 57 103 26z m200
-355 c0 -9 -21 -28 -46 -43 -26 -15 -52 -33 -59 -39 -8 -7 -17 -13 -22 -13 -9
0 -77 -61 -159 -141 -28 -27 -53 -49 -57 -49 -4 0 -7 11 -7 24 0 22 45 69 170
174 43 37 151 102 168 102 6 0 12 -7 12 -15z m1831 -100 c78 -116 74 -110 138
-240 69 -140 94 -215 72 -215 -5 0 -13 15 -16 33 -4 17 -18 55 -30 82 -13 28
-31 68 -40 90 -18 46 -84 159 -132 226 -18 26 -33 49 -33 53 0 3 -9 15 -20 26
-12 12 -18 25 -14 31 8 13 10 11 75 -86z m-988 35 c74 -20 199 -85 260 -132
38 -30 45 -54 27 -89 -14 -26 -31 -24 -73 9 -45 35 -89 60 -157 90 -128 57
-145 67 -148 90 -3 18 12 52 22 52 0 0 32 -9 69 -20z m1147 -20 c0 -5 -2 -10
-4 -10 -3 0 -8 5 -11 10 -3 6 -1 10 4 10 6 0 11 -4 11 -10z m520 -104 c1 -6 9
-29 20 -51 11 -22 19 -48 20 -57 0 -9 4 -19 9 -22 5 -3 11 -16 14 -28 2 -13
20 -84 40 -158 43 -170 77 -365 77 -451 0 -27 -23 -50 -36 -36 -3 3 -12 59
-20 124 -25 207 -56 341 -121 528 -58 169 -56 162 -49 181 6 15 8 15 26 -1 11
-10 20 -23 20 -29z m-3830 9 c0 -3 -11 -33 -26 -68 -23 -58 -84 -240 -98 -297
-4 -14 -13 -49 -21 -78 -8 -29 -17 -72 -20 -95 -4 -23 -10 -60 -15 -82 -5 -22
-10 -57 -10 -77 0 -21 -5 -38 -10 -38 -12 0 -8 38 20 200 27 153 36 192 71
293 52 153 90 247 100 247 5 0 9 -2 9 -5z m3404 -75 c7 -24 6 -24 -8 -6 -9 11
-16 27 -16 35 0 21 16 2 24 -29z m56 -121 c0 -5 -4 -9 -10 -9 -5 0 -10 7 -10
16 0 8 5 12 10 9 6 -3 10 -10 10 -16z m-4021 -55 c-9 -22 -13 -25 -16 -12 -5
19 18 69 24 52 2 -6 -2 -24 -8 -40z m4070 -94 c0 -10 -3 -8 -9 5 -12 27 -12
43 0 25 5 -8 9 -22 9 -30z m-1565 -36 c6 -15 -2 -44 -13 -44 -3 -1 -50 -2
-103 -4 -84 -2 -97 0 -101 15 -8 30 9 41 69 48 80 8 141 2 148 -15z m1581 6
c3 -5 2 -10 -4 -10 -5 0 -13 5 -16 10 -3 6 -2 10 4 10 5 0 13 -4 16 -10z m43
-77 c27 -53 61 -275 66 -433 5 -164 -4 -255 -24 -255 -13 0 -14 19 -11 125 4
140 -11 307 -40 452 -10 53 -19 103 -19 112 0 21 17 20 28 -1z m-503 -172 c40
-128 54 -477 18 -488 -8 -3 -12 34 -12 139 0 79 -5 175 -10 213 -23 151 -24
155 -13 155 6 0 13 -9 17 -19z m-3336 -20 c7 -12 7 -65 2 -152 -5 -74 -8 -159
-6 -189 2 -30 6 -104 10 -165 3 -60 17 -168 31 -239 23 -113 24 -130 11 -143
-23 -23 -53 -7 -65 35 -17 58 -40 206 -53 342 -16 167 -5 471 17 506 19 29 40
31 53 5z m393 -48 c2 -10 0 -38 -4 -63 -19 -121 -3 -474 28 -597 5 -17 2 -23
-10 -23 -9 0 -16 2 -16 4 0 3 -6 35 -14 73 -24 113 -29 198 -28 407 1 151 4
201 14 207 19 13 26 11 30 -8z m1956 -48 c32 -45 41 -75 23 -75 -5 0 -19 16
-31 35 -12 20 -29 42 -37 50 -14 14 -10 35 6 35 4 0 22 -20 39 -45z m-1122
-207 c0 -84 4 -166 8 -181 4 -17 3 -26 -2 -23 -12 7 -32 173 -31 251 1 51 12
105 22 105 1 0 3 -69 3 -152z m-2019 -69 c16 -349 69 -661 165 -953 29 -89 31
-135 4 -105 -27 29 -122 370 -147 524 -32 202 -39 267 -45 424 -6 147 -5 173
7 169 9 -3 15 -23 16 -59z m5403 -270 c-6 -63 -15 -127 -20 -144 -5 -16 -14
-61 -20 -100 -27 -167 -151 -544 -187 -572 -9 -7 -28 -37 -43 -66 -15 -30 -37
-72 -48 -93 -11 -22 -28 -55 -37 -74 -21 -47 -43 -75 -52 -66 -4 4 -1 17 7 29
7 12 38 69 68 127 30 58 58 110 62 115 4 6 14 29 23 52 9 23 25 61 36 85 35
75 107 316 136 451 3 15 9 26 13 23 4 -2 7 6 7 17 1 12 9 74 18 137 9 63 20
137 23 164 4 32 9 45 16 38 6 -6 6 -47 -2 -123z m-3138 -247 c10 -18 15 -32
11 -32 -3 0 12 -17 35 -38 23 -22 42 -45 43 -53 0 -11 2 -11 6 -1 4 10 8 10
19 1 8 -6 11 -16 7 -22 -3 -6 -1 -7 5 -3 18 11 61 -26 62 -51 0 -13 -4 -23
-10 -23 -5 0 -10 7 -10 16 0 8 -4 12 -10 9 -12 -8 -25 2 -121 96 -71 70 -83
90 -80 127 2 22 24 8 43 -26z m-640 -165 c55 -105 133 -223 183 -282 15 -16
38 -43 52 -59 27 -31 36 -87 15 -94 -23 -7 -11 -28 38 -67 51 -40 71 -78 53
-96 -23 -23 -240 203 -341 353 -53 79 -64 114 -36 120 12 2 7 19 -25 85 -23
45 -41 92 -41 105 0 26 18 50 35 45 5 -2 35 -51 67 -110z m2608 -76 c0 -5 -5
-22 -10 -36 -8 -22 -13 -25 -25 -15 -12 10 -12 15 2 36 15 24 33 32 33 15z
m945 -21 c-7 -31 -74 -210 -100 -267 -8 -17 -15 -36 -15 -42 0 -6 -4 -11 -10
-11 -5 0 -10 -5 -10 -11 0 -28 -154 -302 -199 -354 -9 -11 -28 -37 -42 -57
-20 -32 -49 -51 -49 -33 0 6 83 127 121 175 35 46 189 337 189 359 0 6 8 25
18 43 10 18 31 71 47 118 26 79 41 110 52 110 3 0 2 -14 -2 -30z m-1931 4 c3
-9 6 -28 6 -42 0 -23 -8 -31 -49 -49 -91 -42 -283 -67 -309 -41 -19 19 -14 56
11 72 12 9 45 18 72 21 95 9 127 15 147 26 11 6 22 8 25 5 3 -3 15 1 27 9 27
20 62 19 70 -1z m952 -45 c3 -6 2 -14 -3 -18 -5 -3 -15 -21 -22 -39 -8 -18
-21 -38 -30 -45 -9 -7 -21 -23 -28 -37 -24 -54 -230 -271 -249 -263 -8 3 -14
10 -14 15 0 5 42 51 93 101 51 51 101 104 111 119 10 15 23 25 29 21 6 -3 7
-1 3 5 -3 6 6 26 22 44 15 18 36 50 47 71 20 39 29 44 41 26z m2796 -151 c5
-32 -29 -191 -52 -243 -5 -11 -12 -36 -16 -55 -4 -19 -12 -48 -19 -65 -7 -16
-27 -75 -45 -130 -36 -111 -106 -293 -153 -400 -100 -223 -282 -554 -321 -581
-34 -23 -55 -17 -64 19 l-9 32 -48 -75 c-49 -76 -197 -280 -244 -336 -14 -17
-35 -42 -45 -55 -11 -13 -77 -87 -147 -165 -136 -149 -227 -234 -253 -234 -14
0 -36 28 -36 48 0 5 55 65 123 133 68 68 152 158 187 199 35 41 66 77 70 80 7
5 100 125 135 174 11 16 29 40 41 55 65 80 248 377 323 521 42 81 80 97 99 42
8 -25 12 -19 59 78 50 104 62 132 121 280 30 76 84 228 116 330 10 30 22 64
26 75 8 20 27 88 57 214 18 74 44 107 73 91 10 -5 20 -20 22 -32z m-4758 -102
c61 -41 134 -85 161 -96 119 -51 137 -63 128 -86 -3 -9 -22 -5 -71 15 -95 39
-166 73 -172 80 -3 3 -42 31 -87 61 -45 30 -85 60 -88 68 -5 14 1 32 12 32 3
0 56 -34 117 -74z m974 -73 c3 -23 -17 -32 -109 -49 -18 -4 -42 -11 -52 -16
-30 -15 -255 -11 -342 6 -80 16 -109 34 -98 62 6 17 20 17 98 1 79 -17 331
-13 410 6 76 18 89 17 93 -10z m337 -69 c0 -56 -451 -211 -480 -164 -12 20 17
37 85 50 91 17 233 65 310 104 71 37 85 39 85 10z m-899 -230 c44 -10 133 -17
247 -19 99 -2 182 -6 185 -10 17 -17 -19 -41 -74 -48 -122 -17 -425 17 -468
52 -21 18 -3 55 23 46 10 -3 49 -13 87 -21z m-1851 -52 c6 -4 19 -20 29 -37
112 -180 356 -445 546 -594 30 -24 64 -56 75 -72 11 -16 77 -66 147 -111 99
-65 127 -88 132 -109 3 -16 18 -34 38 -46 61 -35 262 -121 350 -148 89 -28
114 -44 105 -69 -7 -19 -91 5 -263 74 -123 50 -361 172 -414 212 -14 11 -61
43 -105 71 -66 43 -81 57 -85 82 -4 23 -25 48 -85 99 -44 38 -109 96 -143 130
-114 110 -382 448 -382 482 0 13 27 44 38 44 4 0 12 -4 17 -8z m3643 -42 c-7
-10 -14 -18 -15 -16 -6 6 9 36 18 36 5 0 4 -9 -3 -20z m-28 -25 c0 -8 -4 -15
-10 -15 -5 0 -7 7 -4 15 4 8 8 15 10 15 2 0 4 -7 4 -15z m2009 -162 c-39 -93
-61 -137 -147 -298 -90 -168 -271 -453 -331 -520 -15 -16 -52 -64 -83 -105
-89 -118 -157 -190 -173 -183 -23 8 -18 26 21 69 33 37 213 260 252 314 157
214 282 434 432 755 52 112 64 128 68 93 2 -15 -16 -71 -39 -125z m-2131 38
c-13 -15 -27 -26 -31 -24 -10 6 32 53 46 53 4 0 -2 -13 -15 -29z m-3732 -23
c9 -18 61 -91 115 -163 129 -171 321 -368 498 -508 20 -16 38 -32 41 -36 5 -7
117 -88 185 -133 88 -59 207 -127 319 -182 107 -54 138 -77 123 -92 -8 -8
-246 113 -372 190 -107 65 -275 183 -325 229 -14 12 -52 45 -85 72 -33 28 -67
59 -75 70 -8 11 -46 54 -85 95 -68 73 -142 154 -197 217 -14 17 -32 41 -39 54
-11 21 -64 94 -79 109 -16 16 -60 88 -60 98 0 23 20 12 36 -20z m249 -65 c9
-10 56 -65 104 -123 157 -186 314 -327 541 -486 109 -76 111 -78 108 -113 -5
-57 -32 -52 -145 23 -191 127 -385 296 -548 479 -121 135 -152 200 -107 226
24 14 30 14 47 -6z m3935 -7 c0 -8 -34 -50 -76 -93 -41 -43 -81 -92 -88 -108
-43 -102 -485 -397 -731 -490 -67 -25 -69 -25 -77 16 -3 14 -19 11 -118 -22
-194 -64 -481 -122 -525 -106 -20 8 -19 43 1 51 9 3 37 6 62 6 26 1 65 5 87
10 22 4 76 15 120 24 154 31 373 106 518 178 57 28 59 29 64 9 5 -22 37 -29
48 -11 3 5 25 18 48 28 52 23 265 166 333 224 27 24 70 59 93 78 24 19 85 77
135 128 50 50 94 92 98 92 5 0 8 -6 8 -14z m-560 -1 c0 -7 -73 -55 -84 -55
-14 0 14 29 43 44 28 15 41 19 41 11z m1006 -10 c7 -17 -46 -111 -86 -153 -14
-15 -42 -48 -63 -75 -40 -48 -200 -213 -297 -303 -84 -78 -300 -235 -319 -232
-9 2 -17 12 -19 24 -2 15 14 32 70 69 203 137 455 380 630 608 60 78 74 89 84
62z m-1276 -35 c-14 -10 -27 -17 -29 -14 -6 5 31 33 44 33 6 1 -1 -8 -15 -19z
m-3570 -9 c0 -11 73 -117 103 -151 16 -17 40 -50 55 -73 33 -52 50 -72 184
-216 140 -152 192 -201 213 -201 9 0 47 -26 83 -58 37 -33 103 -86 147 -119
73 -54 113 -82 270 -182 42 -27 240 -127 417 -210 56 -26 76 -47 60 -63 -16
-16 -71 5 -286 107 -106 50 -208 109 -334 194 -63 42 -119 79 -125 82 -7 3
-28 14 -47 24 -37 20 -164 119 -216 170 -17 16 -55 53 -85 80 -130 121 -379
420 -472 567 -20 32 -22 55 -4 61 14 5 37 -2 37 -12z m3730 -15 c0 -3 -4 -8
-10 -11 -5 -3 -10 -1 -10 4 0 6 5 11 10 11 6 0 10 -2 10 -4z m-45 -36 c-3 -5
-12 -10 -18 -10 -7 0 -6 4 3 10 19 12 23 12 15 0z m1398 -32 c-10 -18 -20 -35
-23 -38 -3 -3 -25 -34 -49 -70 -25 -36 -47 -67 -50 -70 -4 -3 -33 -36 -66 -75
-71 -83 -125 -143 -143 -159 -7 -6 -18 -17 -25 -24 -51 -55 -120 -123 -155
-152 -23 -19 -67 -59 -99 -87 -32 -29 -64 -53 -70 -53 -7 0 -13 -5 -13 -10 0
-6 -8 -14 -17 -17 -10 -4 -25 -14 -34 -24 -9 -11 -20 -14 -28 -10 -10 6 -6 15
15 35 16 14 34 26 41 26 7 0 13 3 13 8 0 4 37 36 83 72 148 117 464 451 556
588 14 21 28 39 33 40 4 2 8 9 8 15 0 13 31 49 38 43 2 -3 -4 -20 -15 -38z
m-1447 -4 c-22 -16 -36 -18 -36 -6 0 11 43 32 50 25 3 -3 -4 -11 -14 -19z
m-3718 -116 c38 -57 97 -137 131 -178 35 -41 81 -97 104 -125 23 -27 93 -102
157 -165 112 -112 170 -164 295 -267 76 -63 89 -79 81 -99 -6 -15 -9 -15 -34
2 -71 46 -226 180 -346 298 -165 163 -214 218 -312 348 -43 57 -81 105 -85
108 -16 12 -89 135 -89 150 0 18 9 30 21 30 5 0 40 -46 77 -102z m3462 38 c0
-3 -4 -8 -10 -11 -5 -3 -10 -1 -10 4 0 6 5 11 10 11 6 0 10 -2 10 -4z m483
-18 c14 -40 -57 -98 -235 -192 -164 -87 -447 -194 -524 -199 -35 -2 -39 0 -39
22 0 29 4 31 135 71 150 46 172 54 320 124 96 45 190 98 260 147 59 41 75 46
83 27z m-607 -37 c-8 -12 -46 -21 -46 -11 0 5 10 11 23 13 12 2 23 5 25 6 2 0
1 -3 -2 -8z m-136 -51 c-8 -5 -17 -7 -19 -4 -3 3 1 9 9 14 8 5 17 7 19 4 3 -3
-1 -9 -9 -14z m-50 -8 c0 -5 -6 -9 -12 -10 -7 0 -24 -3 -38 -7 l-25 -6 25 15
c28 17 50 20 50 8z m-1344 -11 c18 -16 234 -91 346 -120 102 -26 178 -38 347
-56 63 -6 66 -8 57 -31 -6 -15 -17 -16 -84 -10 -170 14 -389 63 -567 126 -110
39 -145 57 -145 74 0 25 26 35 46 17z m2625 -14 c-10 -9 -11 -8 -5 6 3 10 9
15 12 12 3 -3 0 -11 -7 -18z m-1471 -6 c0 -17 -65 -30 -150 -29 l-85 1 65 7
c102 12 154 20 159 25 7 8 11 6 11 -4z m40 5 c0 -11 -19 -15 -25 -6 -3 5 1 10
9 10 9 0 16 -2 16 -4z m-2351 -103 c145 -146 299 -272 456 -374 125 -81 158
-101 233 -139 74 -38 93 -56 76 -73 -3 -3 -49 17 -102 43 -223 113 -476 299
-686 504 -91 89 -106 109 -96 121 7 8 14 15 17 15 2 0 48 -44 102 -97z m3155
-202 c24 -38 -352 -188 -629 -250 -129 -30 -270 -49 -283 -39 -21 18 5 35 66
43 169 21 475 99 587 150 234 107 249 113 259 96z m-4209 -123 c11 -18 25 -40
31 -51 6 -10 21 -27 33 -38 11 -11 21 -23 21 -27 0 -4 22 -31 50 -61 27 -29
71 -79 98 -110 80 -91 169 -181 181 -181 6 0 19 -8 30 -19 51 -51 230 -211
236 -211 4 0 21 -12 39 -26 101 -83 178 -139 257 -189 9 -5 48 -31 87 -58 39
-26 82 -51 94 -56 13 -5 39 -20 58 -33 19 -13 110 -61 203 -107 92 -46 167
-89 167 -96 0 -23 -156 45 -325 140 -60 35 -126 71 -145 82 -89 50 -210 124
-222 135 -8 7 -21 18 -29 23 -146 93 -269 198 -534 452 -145 138 -365 405
-365 442 0 30 12 26 35 -11z m4165 17 c0 -9 -245 -115 -265 -115 -3 0 -5 5 -5
10 0 6 9 10 19 10 11 0 22 4 26 10 3 5 20 14 38 19 18 5 64 23 102 40 72 30
85 35 85 26z m3076 -70 c20 -51 -352 -598 -593 -870 -121 -138 -182 -202 -298
-315 -236 -228 -267 -252 -281 -216 -8 22 3 36 91 111 103 88 312 297 410 411
43 49 82 94 89 99 6 6 31 37 56 70 25 33 50 65 55 71 6 6 26 32 45 58 19 26
45 60 57 75 25 31 233 339 233 345 0 6 63 108 88 144 25 35 40 40 48 17z
m-3381 -55 c-5 -9 -47 -23 -123 -40 -28 -7 -31 -6 -21 6 6 8 21 14 33 15 11 0
37 7 56 14 42 16 63 18 55 5z m-2665 -90 c49 -38 92 -70 95 -70 6 0 175 -110
185 -120 11 -11 241 -129 340 -174 87 -40 227 -94 267 -103 12 -3 28 -11 34
-19 9 -11 7 -14 -9 -14 -12 0 -31 4 -44 9 -13 6 -61 24 -106 41 -46 17 -91 35
-100 40 -10 4 -46 20 -82 35 -127 53 -403 212 -535 308 -101 74 -145 111 -145
123 0 8 2 14 5 14 3 0 46 -31 95 -70z m2440 25 c0 -7 -69 -23 -150 -36 -126
-18 -170 -21 -170 -9 0 5 19 10 43 10 51 0 206 25 216 36 6 5 61 5 61 -1z
m3733 -49 c-10 -13 -19 -23 -21 -21 -5 5 22 45 31 45 4 0 0 -11 -10 -24z
m-4079 8 c25 -9 19 -24 -9 -24 -24 0 -32 10 -18 23 8 8 8 8 27 1z m-2120 -252
c50 -45 289 -185 451 -265 145 -72 482 -199 562 -213 32 -6 89 -28 95 -38 14
-20 9 -56 -7 -56 -20 0 -194 46 -265 70 -226 76 -461 185 -680 316 -174 105
-220 139 -220 167 0 42 29 50 64 19z m2543 -18 c9 -25 -10 -35 -104 -55 -258
-53 -539 -69 -797 -45 -93 8 -173 19 -179 25 -15 15 -3 46 18 44 284 -27 517
-30 705 -8 125 14 279 41 289 50 11 12 62 4 68 -11z m-2041 -141 c-7 -7 -26 7
-26 19 0 6 6 6 15 -2 9 -7 13 -15 11 -17z m5445 4 c-10 -9 -11 -8 -5 6 3 10 9
15 12 12 3 -3 0 -11 -7 -18z m-3016 -152 c0 -30 -26 -40 -235 -96 -143 -38
-256 -60 -396 -79 -77 -11 -152 -23 -165 -28 -43 -17 -271 -23 -434 -13 -256
17 -531 65 -715 125 -55 19 -65 25 -68 47 -5 46 18 53 100 28 132 -39 320 -77
493 -99 149 -19 206 -21 470 -18 273 4 314 7 450 32 83 15 170 33 195 40 25 8
77 22 115 32 39 10 90 26 115 35 55 21 75 20 75 -6z m1355 6 c0 -10 -12 -28
-27 -40 -16 -11 -44 -33 -64 -48 -20 -16 -48 -37 -64 -48 -15 -11 -40 -30 -55
-42 -15 -13 -32 -23 -37 -23 -6 0 -18 -9 -28 -20 -10 -11 -23 -20 -28 -20 -6
0 -19 -7 -29 -17 -10 -9 -27 -21 -37 -27 -11 -6 -71 -41 -133 -78 -173 -102
-473 -242 -618 -289 -14 -4 -50 -17 -80 -28 -54 -21 -78 -17 -67 12 3 7 40 26
84 41 388 134 773 342 1097 593 38 29 73 53 78 53 4 0 8 -8 8 -19z m-1320
-220 c0 -24 -15 -35 -75 -56 -138 -47 -343 -92 -570 -126 -119 -17 -199 -22
-389 -23 -217 -1 -240 1 -250 16 -8 13 -8 23 0 35 10 16 26 18 120 15 198 -5
477 21 707 64 128 24 378 88 407 104 20 11 50 -6 50 -29z m2410 -315 c0 -2 -8
-10 -17 -17 -16 -13 -17 -12 -4 4 13 16 21 21 21 13z m-2510 -129 c0 -19 -9
-26 -47 -39 -110 -38 -472 -98 -673 -113 -120 -9 -393 -9 -537 0 -101 6 -125
11 -139 26 -27 30 -6 42 62 35 177 -17 485 -18 664 -1 183 16 435 58 580 94
95 25 90 25 90 -2z"/>
<path d="M5191 6084 c0 -11 3 -14 6 -6 3 7 2 16 -1 19 -3 4 -6 -2 -5 -13z"/>
<path d="M6615 6210 c10 -11 20 -18 23 -16 5 6 -23 36 -34 36 -4 0 1 -9 11
-20z"/>
<path d="M6640 6139 c0 -5 5 -7 10 -4 6 3 10 8 10 11 0 2 -4 4 -10 4 -5 0 -10
-5 -10 -11z"/>
<path d="M6695 6020 c-3 -5 -1 -10 4 -10 6 0 11 5 11 10 0 6 -2 10 -4 10 -3 0
-8 -4 -11 -10z"/>
<path d="M6750 5880 c-13 -8 -12 -10 3 -10 9 0 17 5 17 10 0 12 -1 12 -20 0z"/>
<path d="M3135 4860 c-3 -6 1 -7 9 -4 18 7 21 14 7 14 -6 0 -13 -4 -16 -10z"/>
<path d="M2430 3710 c6 -11 12 -20 14 -20 2 0 2 9 -1 20 -3 11 -9 20 -15 20
-5 0 -4 -9 2 -20z"/>
<path d="M6683 2173 c-3 -10 -8 -22 -10 -28 -3 -5 3 -1 11 9 16 20 21 36 11
36 -3 0 -8 -8 -12 -17z"/>
<path d="M6646 2104 c-4 -9 -4 -19 -1 -22 2 -3 7 3 11 12 4 9 4 19 1 22 -2 3
-7 -3 -11 -12z"/>
<path d="M6569 1963 c-13 -16 -12 -17 4 -4 16 13 21 21 13 21 -2 0 -10 -8 -17
-17z"/>
<path d="M1777 7483 c-16 -8 -27 -17 -24 -19 5 -5 77 24 77 31 0 9 -24 3 -53
-12z"/>
<path d="M6995 7492 c13 -10 50 -63 58 -84 3 -10 11 -18 16 -18 5 0 13 -10 17
-22 8 -27 43 -60 55 -53 12 8 81 -86 75 -102 -3 -7 1 -13 9 -13 20 0 19 -10
-2 -27 -16 -13 -15 -14 10 -8 19 4 26 2 22 -5 -3 -5 -2 -10 3 -10 4 0 24 -29
42 -66 19 -36 40 -70 47 -76 7 -6 13 -19 13 -29 0 -11 9 -28 20 -39 11 -11 23
-32 26 -47 4 -16 10 -30 13 -33 14 -12 71 -132 66 -140 -3 -5 -1 -11 5 -15 7
-4 10 54 10 174 l0 180 -32 58 c-17 32 -42 74 -55 93 -12 19 -23 39 -23 43 0
5 -11 23 -25 39 -14 16 -23 33 -20 38 3 4 -1 10 -8 13 -6 3 -21 22 -32 43 -11
22 -28 48 -37 58 -10 11 -20 28 -24 38 -5 16 -18 18 -132 18 -70 0 -122 -4
-117 -8z"/>
<path d="M7290 7490 c8 -5 11 -10 7 -10 -4 0 2 -10 14 -22 24 -26 43 -67 40
-85 -1 -7 4 -13 11 -13 25 0 111 -151 101 -177 -5 -12 -2 -15 10 -10 10 4 17
0 20 -11 3 -9 5 63 6 161 1 112 -3 177 -9 177 -5 0 -10 -9 -10 -20 0 -11 -4
-20 -9 -20 -5 0 -11 9 -14 20 -5 18 -13 20 -94 20 -60 0 -83 -3 -73 -10z"/>
<path d="M7001 7424 c0 -11 3 -14 6 -6 3 7 2 16 -1 19 -3 4 -6 -2 -5 -13z"/>
<path d="M7032 7380 c0 -14 2 -19 5 -12 2 6 2 18 0 25 -3 6 -5 1 -5 -13z"/>
<path d="M7055 7370 c-3 -5 -1 -10 4 -10 6 0 11 5 11 10 0 6 -2 10 -4 10 -3 0
-8 -4 -11 -10z"/>
<path d="M7370 7321 c0 -6 4 -13 10 -16 6 -3 7 1 4 9 -7 18 -14 21 -14 7z"/>
<path d="M7150 7270 c0 -5 5 -10 10 -10 6 0 10 5 10 10 0 6 -4 10 -10 10 -5 0
-10 -4 -10 -10z"/>
<path d="M7140 7234 c0 -8 5 -12 10 -9 6 4 8 11 5 16 -9 14 -15 11 -15 -7z"/>
<path d="M7190 7140 c0 -5 5 -10 10 -10 6 0 10 5 10 10 0 6 -4 10 -10 10 -5 0
-10 -4 -10 -10z"/>
<path d="M7236 7113 c10 -40 14 -41 14 -5 0 18 -5 32 -10 32 -6 0 -8 -11 -4
-27z"/>
<path d="M7270 7049 c0 -19 -4 -28 -11 -24 -6 4 -8 14 -4 24 4 11 3 13 -5 5
-18 -18 0 -44 31 -44 30 0 38 -17 17 -38 -16 -16 -1 -16 16 0 17 16 8 48 -13
48 -19 0 -25 31 -9 41 5 3 3 9 -6 12 -12 5 -16 0 -16 -24z"/>
<path d="M7265 6990 c3 -5 12 -7 20 -3 21 7 19 13 -6 13 -11 0 -18 -4 -14 -10z"/>
<path d="M7330 6950 c0 -5 -7 -10 -16 -10 -8 0 -12 -4 -9 -10 10 -16 23 -12
35 10 7 14 7 20 0 20 -5 0 -10 -4 -10 -10z"/>
<path d="M7346 6921 c-4 -7 -5 -15 -2 -18 9 -9 19 4 14 18 -4 11 -6 11 -12 0z"/>
<path d="M7315 6901 c-3 -5 -1 -12 5 -16 5 -3 10 1 10 9 0 18 -6 21 -15 7z"/>
<path d="M7352 6865 c0 -16 2 -22 5 -12 2 9 2 23 0 30 -3 6 -5 -1 -5 -18z"/>
<path d="M7381 6853 c25 -32 49 -43 49 -22 0 5 -5 7 -11 4 -6 -4 -13 2 -16 14
-3 12 -12 21 -20 21 -13 0 -13 -3 -2 -17z"/>
<path d="M7386 6812 c6 -4 15 -18 19 -31 7 -23 8 -24 21 -6 14 18 10 40 -6 30
-5 -3 -11 -1 -15 5 -3 5 -12 10 -18 10 -9 0 -9 -2 -1 -8z"/>
<path d="M7411 6724 c0 -11 3 -14 6 -6 3 7 2 16 -1 19 -3 4 -6 -2 -5 -13z"/>
<path d="M7434 6684 c7 -39 16 -42 16 -6 0 18 -5 32 -10 32 -6 0 -8 -12 -6
-26z"/>
<path d="M7470 6665 c0 -14 -4 -25 -10 -25 -5 0 -10 -5 -10 -11 0 -8 4 -8 14
0 16 13 27 61 15 61 -5 0 -9 -11 -9 -25z"/>
<path d="M7473 1070 c-13 -21 -44 -68 -70 -103 -27 -35 -76 -104 -110 -153
-62 -88 -147 -199 -200 -258 -16 -17 -55 -65 -88 -106 -33 -41 -143 -159 -244
-263 l-185 -187 462 0 462 0 0 555 c0 305 -1 555 -2 555 -2 0 -13 -18 -25 -40z
m-219 -865 c-4 -8 -10 -15 -15 -15 -4 0 -6 7 -3 15 4 8 10 15 15 15 4 0 6 -7
3 -15z m-83 -88 c-10 -9 -11 -8 -5 6 3 10 9 15 12 12 3 -3 0 -11 -7 -18z m-51
-66 c0 -5 -7 -11 -15 -15 -15 -5 -20 5 -8 17 9 10 23 9 23 -2z"/>
<path d="M5879 660 c-13 -10 -19 -19 -13 -20 7 0 22 9 35 20 13 10 19 19 13
20 -7 0 -22 -9 -35 -20z"/>
<path d="M5815 605 c-74 -63 -86 -75 -78 -75 7 0 82 59 122 96 2 2 0 4 -5 4
-5 0 -22 -11 -39 -25z"/>
<path d="M5695 509 c-11 -16 -1 -19 13 -3 7 8 8 14 3 14 -5 0 -13 -5 -16 -11z"/>
<path d="M0 251 l1 -251 190 0 191 0 -61 41 c-39 26 -61 47 -61 60 0 22 28 26
36 4 4 -8 24 -25 45 -37 21 -12 39 -25 39 -28 0 -4 17 -15 38 -24 28 -13 59
-16 126 -14 l89 3 -84 58 c-166 113 -323 236 -461 360 l-88 79 0 -251z"/>
<path d="M5634 466 c-10 -8 -15 -18 -11 -22 4 -4 15 0 24 9 22 21 12 31 -13
13z"/>
<path d="M5568 410 l-33 -30 32 17 c18 10 35 24 38 31 7 19 -2 15 -37 -18z"/>
<path d="M5495 360 c-10 -11 -15 -20 -11 -20 4 0 16 9 28 20 12 11 17 20 11
20 -5 0 -18 -9 -28 -20z"/>
<path d="M5435 320 c-10 -11 -14 -20 -9 -20 12 1 44 25 44 34 0 12 -17 6 -35
-14z"/>
<path d="M5375 280 c-3 -5 -2 -10 4 -10 5 0 13 5 16 10 3 6 2 10 -4 10 -5 0
-13 -4 -16 -10z"/>
<path d="M5277 226 c-36 -19 -74 -32 -84 -30 -10 3 -40 -9 -66 -26 -26 -16
-54 -30 -62 -30 -7 0 -16 -4 -20 -9 -3 -6 -50 -31 -105 -58 -104 -50 -125 -73
-66 -73 38 0 199 79 326 159 14 8 27 16 30 16 13 0 120 70 120 77 0 12 -1 11
-73 -26z"/>
</g>
</svg>
